<svg width="144" height="31" viewBox="0 0 144 31" fill="none" xmlns="http://www.w3.org/2000/svg">
<g clip-path="url(#clip0_29_2)">
<path d="M8.20002 9.3C10.5748 9.3 12.5 7.37482 12.5 5C12.5 2.62517 10.5748 0.699997 8.20002 0.699997C5.8252 0.699997 3.90002 2.62517 3.90002 5C3.90002 7.37482 5.8252 9.3 8.20002 9.3Z" fill="#003CF9"/>
<path d="M11.2 5C11.2 6.6 9.9 8 8.2 8C6.6 8 5.2 6.7 5.2 5C5.2 3.3 6.5 2 8.2 2C9.9 2 11.2 3.3 11.2 5ZM26.7 0H3.8C1.7 0 0 1.7 0 3.7V16.6L5.2 13.2L11.1 9.4V22.5H13.8C17.8 22.5 21.1 19.2 21.1 15.2C21.1 11.2 17.8 7.9 13.8 7.9H13.1V2H13.8C15.6 2 17.3 2.3 18.9 3C20.5 3.7 21.9 4.6 23.1 5.8C24.3 7 25.3 8.4 25.9 10C26.6 11.6 26.9 13.4 26.9 15.1C26.9 16.8 26.6 18.6 25.9 20.2C25.2 21.8 24.3 23.2 23.1 24.4C21.9 25.6 20.5 26.6 18.9 27.2C17.3 27.9 15.5 28.2 13.8 28.2H5.3V17.8L0 20.7V21.6V26.7C0 28.8 1.7 30.4 3.7 30.4H26.6C28.7 30.4 30.3 28.7 30.3 26.7V3.7C30.4 1.7 28.7 0 26.7 0Z" fill="#FCE900"/>
<path d="M67.7 0.899994V30.4H59.3V9.29999L53.8 30.4H48L42.4 9.29999V30.4H35.6V0.899994H47.4L51.7 16.6L55.8 0.899994H67.7Z" fill="white"/>
<path d="M94.9999 23.4V30.4H72.7999V0.899994H94.9999V7.69999H81.6999V12H92.3999V18.5H81.6999V23.3H94.9999V23.4Z" fill="white"/>
<path d="M110.7 7.99999V30.4H102.1V7.99999H96V0.899994H116.8V7.99999H110.7Z" fill="white"/>
<path d="M134 30.4L132.4 24.6H124.4L122.7 30.4H115.4L124.5 0.899994H134.1L143.4 30.4H134ZM126 18.2H130.7L128.3 9.69999L126 18.2Z" fill="white"/>
</g>
<defs>
<clipPath id="clip0_29_2">
<rect width="143.3" height="30.4" fill="white"/>
</clipPath>
</defs>
</svg>
